<svg xmlns="http://www.w3.org/2000/svg" width="132" height="33" viewBox="0 0 132 33">
    <defs>
        <linearGradient id="a" x1="15.463%" x2="84.555%" y1="20.419%" y2="91.403%">
            <stop offset="0%" stop-color="#05BBC4"/>
            <stop offset="8.17%" stop-color="#04B7C4"/>
            <stop offset="45.33%" stop-color="#01A8C4"/>
        </linearGradient>
    </defs>
    <g fill="none" fill-rule="nonzero">
        <path fill="#01A8C4" d="M48.497 6.062a6.509 6.509 0 0 1 2.5 2.398c.607 1.016.91 2.144.91 3.383 0 1.24-.303 2.37-.91 3.392a6.62 6.62 0 0 1-2.5 2.425c-1.06.595-2.233.893-3.522.893-1.289 0-2.463-.298-3.522-.893a6.62 6.62 0 0 1-2.5-2.425c-.608-1.022-.911-2.153-.911-3.392 0-1.24.303-2.367.91-3.383a6.507 6.507 0 0 1 2.5-2.398c1.06-.582 2.234-.873 3.523-.873 1.289 0 2.463.291 3.522.873M42.8 8.005c-.682.39-1.22.923-1.617 1.598a4.34 4.34 0 0 0-.595 2.24c0 .818.202 1.567.604 2.249.403.681.942 1.22 1.617 1.617a4.27 4.27 0 0 0 2.203.595c.78 0 1.506-.198 2.175-.595a4.374 4.374 0 0 0 1.589-1.617c.39-.682.585-1.431.585-2.25a4.394 4.394 0 0 0-2.174-3.837 4.24 4.24 0 0 0-2.175-.586c-.793 0-1.53.195-2.212.586M55.504 5.356h2.49v10.762h5.614v2.249h-8.104zM75.721 5.356l-4.74 8.754v4.257h-2.49v-4.164L63.64 5.356h2.528l3.55 6.115 3.494-6.115zM78.391 5.356h2.844l4.312 8.383 4.275-8.383h2.844v13.01H90.38v-9.33l-4.052 7.993h-1.599l-4.07-7.993v9.33H78.39zM106.312 6.527c.898.78 1.347 1.884 1.347 3.308 0 1.487-.449 2.643-1.347 3.467-.899.824-2.165 1.236-3.801 1.236h-2.844v3.829h-2.49V5.356h5.334c1.636 0 2.902.39 3.8 1.17m-1.765 5.205c.502-.409.753-1.016.753-1.821 0-.793-.251-1.388-.753-1.785-.502-.396-1.224-.594-2.165-.594h-2.714v4.814h2.714c.941 0 1.663-.205 2.165-.614M111.01 5.356h2.491v13.011h-2.49zM127.668 18.367l-1.152-2.751h-6.357l-1.153 2.75h-2.583l5.706-13.01h2.584l5.632 13.01h-2.677zm-6.617-4.888h4.572l-2.267-5.465-2.305 5.465z"/>
        <path fill="url(#a)" d="M32.31 22.41l-5.925-4.81a11.548 11.548 0 0 0 1.315-3.268 11.78 11.78 0 0 0 .298-2.994 11.562 11.562 0 0 0-.374-2.606h-.001a11.53 11.53 0 0 0-.882-2.313 11.605 11.605 0 0 0-2.175-2.976 11.662 11.662 0 0 0-3.333-2.309A11.529 11.529 0 0 0 16.396.081a11.537 11.537 0 0 0-5.78 1.54l-.03.016a11.664 11.664 0 0 0-3.871 3.647 11.578 11.578 0 0 0-1.622 3.758 11.56 11.56 0 0 0-.298 2.994 11.679 11.679 0 0 0 .374 2.606 11.528 11.528 0 0 0 .882 2.313c.119.232.248.459.382.682L.486 22.431a1.304 1.304 0 0 0-.245 1.771c.227.318 5.663 7.797 16.224 7.797 10.572 0 15.876-7.516 16.097-7.836a1.305 1.305 0 0 0-.252-1.753zM10.145 10.358a6.395 6.395 0 0 1 8.226-4.749 6.361 6.361 0 0 1 2.407 1.431 6.441 6.441 0 0 1 1.432 1.996 6.377 6.377 0 0 1 .574 2.49l.002-.001h-.002a6.583 6.583 0 0 1-.134 1.49 6.27 6.27 0 0 1-.395 1.23l-4.968-4.033a1.304 1.304 0 0 0-1.64-.003l-5.08 4.094a6.377 6.377 0 0 1-.423-3.945zM26.88 26.063c-3.078 2.208-6.582 3.328-10.416 3.328-3.838 0-7.368-1.118-10.493-3.323a18.27 18.27 0 0 1-2.81-2.443l5.008-4.037c.501-.346 1.84-1.073 4.224-1.073 3.128 0 4.692 2.268 8.445 2.268 2.115 0 3.435-.497 4.184-.93l4.626 3.756a17.735 17.735 0 0 1-2.768 2.454z" transform="translate(.332 .671)"/>
    </g>
</svg>
