<svg xmlns="http://www.w3.org/2000/svg" width="132" height="33" viewBox="0 0 132 33">
    <defs>
        <linearGradient id="a" x1="15.463%" x2="84.555%" y1="20.419%" y2="91.403%">
            <stop offset="0%" stop-color="#05BBC4"/>
            <stop offset="8.17%" stop-color="#04B7C4"/>
            <stop offset="45.33%" stop-color="#01A8C4"/>
        </linearGradient>
    </defs>
    <g fill="none" fill-rule="nonzero">
        <path fill="#01A8C4" d="M48.497 6.062a6.509 6.509 0 0 1 2.5 2.398c.607 1.016.91 2.144.91 3.383 0 1.24-.303 2.37-.91 3.392a6.62 6.62 0 0 1-2.5 2.425c-1.06.595-2.233.893-3.522.893-1.289 0-2.463-.298-3.522-.893a6.62 6.62 0 0 1-2.5-2.425c-.608-1.022-.911-2.153-.911-3.392 0-1.24.303-2.367.91-3.383a6.507 6.507 0 0 1 2.5-2.398c1.06-.582 2.234-.873 3.523-.873 1.289 0 2.463.291 3.522.873M42.8 8.005c-.682.39-1.22.923-1.617 1.598a4.34 4.34 0 0 0-.595 2.24c0 .818.202 1.567.604 2.249.403.681.942 1.22 1.617 1.617a4.27 4.27 0 0 0 2.203.595c.78 0 1.506-.198 2.175-.595a4.374 4.374 0 0 0 1.589-1.617c.39-.682.585-1.431.585-2.25a4.394 4.394 0 0 0-2.174-3.837 4.24 4.24 0 0 0-2.175-.586c-.793 0-1.53.195-2.212.586M55.504 5.356h2.49v10.762h5.614v2.249h-8.104zM75.721 5.356l-4.74 8.754v4.257h-2.49v-4.164L63.64 5.356h2.528l3.55 6.115 3.494-6.115zM78.391 5.356h2.844l4.312 8.383 4.275-8.383h2.844v13.01H90.38v-9.33l-4.052 7.993h-1.599l-4.07-7.993v9.33H78.39zM106.312 6.527c.898.78 1.347 1.884 1.347 3.308 0 1.487-.449 2.643-1.347 3.467-.899.824-2.165 1.236-3.801 1.236h-2.844v3.829h-2.49V5.356h5.334c1.636 0 2.902.39 3.8 1.17m-1.765 5.205c.502-.409.753-1.016.753-1.821 0-.793-.251-1.388-.753-1.785-.502-.396-1.224-.594-2.165-.594h-2.714v4.814h2.714c.941 0 1.663-.205 2.165-.614M111.01 5.356h2.491v13.011h-2.49zM127.668 18.367l-1.152-2.751h-6.357l-1.153 2.75h-2.583l5.706-13.01h2.584l5.632 13.01h-2.677zm-6.617-4.888h4.572l-2.267-5.465-2.305 5.465z"/>
        <path fill="#B3B3B3" d="M42.584 23.003c.358.306.536.738.536 1.295 0 .583-.178 1.035-.536 1.357-.357.323-.861.484-1.512.484h-1.13v1.499h-.991v-5.093h2.121c.65 0 1.155.152 1.512.458m-.702 2.038c.2-.16.3-.398.3-.714 0-.31-.1-.543-.3-.698-.2-.155-.487-.233-.861-.233h-1.08v1.885h1.08c.374 0 .661-.08.86-.24M48.394 22.821c.42.228.752.541.994.939.241.398.362.84.362 1.324 0 .485-.12.928-.362 1.328s-.573.717-.994.95c-.422.232-.889.349-1.401.349-.513 0-.98-.117-1.401-.35a2.612 2.612 0 0 1-.995-.95 2.52 2.52 0 0 1-.362-1.327c0-.485.12-.926.362-1.324a2.57 2.57 0 0 1 .995-.939 2.895 2.895 0 0 1 1.4-.342c.513 0 .98.114 1.402.342m-2.266.76a1.716 1.716 0 0 0-.644.626 1.678 1.678 0 0 0-.236.877c0 .32.08.614.24.88a1.775 1.775 0 0 0 1.52.866 1.727 1.727 0 0 0 1.73-1.746 1.707 1.707 0 0 0-.865-1.503 1.708 1.708 0 0 0-.866-.229c-.315 0-.608.077-.88.23M57.376 22.545h1.028l-1.752 5.093h-1.028l-1.183-3.864-1.205 3.864h-1.012l-1.745-5.093h1.064l1.22 4.038 1.212-4.038h.976l1.22 4.052zM59.647 22.545h3.793v.851h-2.802v1.259h2.513v.851h-2.513v1.28h2.89v.852h-3.88zM68.38 27.638l-.895-1.506c-.04.005-.101.007-.185.007h-1.168v1.499h-.99v-5.093H67.3c.67 0 1.188.152 1.553.458.364.306.547.738.547 1.295 0 .398-.088.738-.263 1.019a1.6 1.6 0 0 1-.765.633l1.138 1.688h-1.13zm-2.248-2.357H67.3c.375 0 .66-.08.858-.24.197-.16.295-.398.295-.714 0-.31-.098-.543-.295-.698-.198-.155-.483-.233-.858-.233h-1.168v1.885zM71.052 22.545h3.792v.851h-2.802v1.259h2.514v.851h-2.514v1.28h2.891v.852h-3.881zM80.087 22.869c.41.215.73.517.961.905.232.389.348.828.348 1.318 0 .49-.117.927-.351 1.313a2.447 2.447 0 0 1-.973.905 2.98 2.98 0 0 1-1.412.328h-2.114v-5.093h2.151c.518 0 .981.108 1.39.324m-.514 3.696c.254-.143.453-.342.595-.597.143-.255.215-.544.215-.87 0-.324-.074-.617-.222-.876a1.558 1.558 0 0 0-.61-.604 1.764 1.764 0 0 0-.868-.215h-1.146v3.377h1.182c.316 0 .6-.072.854-.215M89.155 22.887c.317.228.476.538.476.931 0 .281-.08.523-.24.724-.16.201-.38.336-.662.404.345.063.615.208.81.436.194.229.292.512.292.852 0 .436-.172.78-.514 1.03-.343.25-.81.374-1.4.374H85.55v-5.093h2.3c.551 0 .986.114 1.305.342m-.755 1.571a.554.554 0 0 0 .219-.465.527.527 0 0 0-.219-.451c-.145-.107-.346-.158-.602-.153h-1.257v1.237h1.257c.256 0 .457-.056.602-.168m.137 2.161a.582.582 0 0 0 .266-.509.561.561 0 0 0-.266-.491c-.177-.12-.424-.176-.74-.171h-1.256v1.346h1.257c.315.005.562-.053.739-.175M95.386 22.545L93.5 25.972v1.666h-.99v-1.63l-1.93-3.463h1.005l1.412 2.394 1.39-2.394zM102.823 25.106h.865v1.935c-.271.2-.592.36-.961.484-.37.124-.732.186-1.087.186-.508 0-.97-.117-1.386-.35a2.626 2.626 0 0 1-.987-.949 2.52 2.52 0 0 1-.362-1.328c0-.485.123-.925.37-1.32a2.65 2.65 0 0 1 1.008-.94c.427-.23.899-.345 1.416-.345.37 0 .734.066 1.094.197.36.13.67.31.932.538l-.562.72a2.137 2.137 0 0 0-.684-.429 2.116 2.116 0 0 0-.78-.153 1.81 1.81 0 0 0-.898.23 1.703 1.703 0 0 0-.883 1.502c0 .32.08.614.24.88a1.783 1.783 0 0 0 1.549.866c.177 0 .363-.028.558-.084.194-.055.38-.134.558-.236v-1.404zM109.032 22.545h.962v5.093h-.94l-2.66-3.507v3.507h-.97v-5.093h.94l2.668 3.514zM115.656 22.821c.421.228.753.541.994.939.242.398.363.84.363 1.324 0 .485-.121.928-.363 1.328-.241.4-.573.717-.994.95-.421.232-.888.349-1.4.349-.513 0-.98-.117-1.402-.35a2.614 2.614 0 0 1-.994-.95 2.52 2.52 0 0 1-.362-1.327c0-.485.12-.926.362-1.324.241-.398.573-.71.994-.939a2.895 2.895 0 0 1 1.401-.342c.513 0 .98.114 1.401.342m-2.266.76a1.716 1.716 0 0 0-.643.626 1.678 1.678 0 0 0-.237.877c0 .32.08.614.24.88a1.774 1.774 0 0 0 1.52.866 1.726 1.726 0 0 0 1.73-1.746 1.706 1.706 0 0 0-.865-1.503 1.708 1.708 0 0 0-.865-.229c-.315 0-.609.077-.88.23M120.92 23.483a2.498 2.498 0 0 0-.736-.13c-.236 0-.424.043-.562.13a.409.409 0 0 0-.207.364c0 .14.048.259.144.353.096.095.217.172.363.233.145.06.343.127.595.2.35.102.637.204.86.306.225.102.416.252.574.45.158.2.236.462.236.786 0 .31-.085.581-.255.812-.17.23-.404.406-.702.527-.298.122-.64.182-1.024.182-.404 0-.798-.073-1.183-.222a3.365 3.365 0 0 1-1.005-.593l.414-.829c.261.238.554.424.88.56.325.136.628.204.909.204.276 0 .493-.052.65-.157a.485.485 0 0 0 .237-.425.485.485 0 0 0-.144-.36 1.073 1.073 0 0 0-.366-.23 6.882 6.882 0 0 0-.606-.196 7.244 7.244 0 0 1-.858-.298 1.485 1.485 0 0 1-.569-.44c-.158-.197-.237-.455-.237-.776 0-.295.08-.554.24-.774.16-.221.388-.392.68-.513a2.644 2.644 0 0 1 1.017-.182c.336 0 .667.048.995.145.327.097.62.228.876.393l-.4.851a3.77 3.77 0 0 0-.816-.37M123.764 22.545h1v5.093h-1zM129.077 23.483a2.5 2.5 0 0 0-.736-.13c-.236 0-.424.043-.562.13a.409.409 0 0 0-.207.364c0 .14.048.259.144.353.096.095.217.172.362.233.146.06.344.127.596.2.35.102.636.204.86.306.225.102.416.252.574.45.157.2.236.462.236.786 0 .31-.085.581-.255.812-.17.23-.404.406-.702.527-.298.122-.64.182-1.024.182-.404 0-.799-.073-1.183-.222a3.363 3.363 0 0 1-1.005-.593l.414-.829c.26.238.554.424.88.56.325.136.628.204.909.204.276 0 .493-.052.65-.157a.485.485 0 0 0 .237-.425.485.485 0 0 0-.144-.36 1.071 1.071 0 0 0-.366-.23 6.877 6.877 0 0 0-.606-.196 7.239 7.239 0 0 1-.858-.298 1.485 1.485 0 0 1-.57-.44c-.157-.197-.236-.455-.236-.776 0-.295.08-.554.24-.774.16-.221.387-.392.68-.513a2.645 2.645 0 0 1 1.017-.182c.335 0 .667.048.995.145.327.097.62.228.876.393l-.4.851a3.76 3.76 0 0 0-.816-.37"/>
        <path fill="url(#a)" d="M32.31 22.41l-5.925-4.81a11.548 11.548 0 0 0 1.315-3.268 11.78 11.78 0 0 0 .298-2.994 11.562 11.562 0 0 0-.374-2.606h-.001a11.53 11.53 0 0 0-.882-2.313 11.605 11.605 0 0 0-2.175-2.976 11.662 11.662 0 0 0-3.333-2.309A11.529 11.529 0 0 0 16.396.081a11.537 11.537 0 0 0-5.78 1.54l-.03.016a11.664 11.664 0 0 0-3.871 3.647 11.578 11.578 0 0 0-1.622 3.758 11.56 11.56 0 0 0-.298 2.994 11.679 11.679 0 0 0 .374 2.606 11.528 11.528 0 0 0 .882 2.313c.119.232.248.459.382.682L.486 22.431a1.304 1.304 0 0 0-.245 1.771c.227.318 5.663 7.797 16.224 7.797 10.572 0 15.876-7.516 16.097-7.836a1.305 1.305 0 0 0-.252-1.753zM10.145 10.358a6.395 6.395 0 0 1 8.226-4.749 6.361 6.361 0 0 1 2.407 1.431 6.441 6.441 0 0 1 1.432 1.996 6.377 6.377 0 0 1 .574 2.49l.002-.001h-.002a6.583 6.583 0 0 1-.134 1.49 6.27 6.27 0 0 1-.395 1.23l-4.968-4.033a1.304 1.304 0 0 0-1.64-.003l-5.08 4.094a6.377 6.377 0 0 1-.423-3.945zM26.88 26.063c-3.078 2.208-6.582 3.328-10.416 3.328-3.838 0-7.368-1.118-10.493-3.323a18.27 18.27 0 0 1-2.81-2.443l5.008-4.037c.501-.346 1.84-1.073 4.224-1.073 3.128 0 4.692 2.268 8.445 2.268 2.115 0 3.435-.497 4.184-.93l4.626 3.756a17.735 17.735 0 0 1-2.768 2.454z" transform="translate(.332 .671)"/>
    </g>
</svg>
