<svg xmlns="http://www.w3.org/2000/svg" viewBox="0 0 189.11 189.11"><defs><style>.cls-1{fill:none;stroke:#231f20;stroke-miterlimit:10;stroke-width:3px;}.cls-2{fill:#231f20;}</style></defs><title>gno_token_bw</title><g id="Layer_2" data-name="Layer 2"><g id="Layer_1-2" data-name="Layer 1"><path class="cls-1" d="M187.61,94.55a93.06,93.06,0,1,1-93.06-93,93.05,93.05,0,0,1,93.06,93.05"/><path class="cls-2" d="M146.18,62.72l-4.59,4.59a23.09,23.09,0,0,1-27.15,34.22,21.67,21.67,0,0,1-4.78-2.29L94.75,114.15,81.55,101A23.67,23.67,0,0,1,46,73.43a22.08,22.08,0,0,1,2.68-5.16l-5.55-5.55L42,64.44a60.56,60.56,0,0,0-9,31.93,61.78,61.78,0,0,0,61.37,61.76h.19a61.62,61.62,0,0,0,61.57-61.38,60.5,60.5,0,0,0-9-31.92Z"/><path class="cls-2" d="M55.74,75.15a13.2,13.2,0,0,0-2.67,7.65A12.39,12.39,0,0,0,65.49,95.22a12,12,0,0,0,7.65-2.67Z"/><path class="cls-2" d="M117.31,91.59a12.55,12.55,0,0,0,19.5-10.32,12.84,12.84,0,0,0-2.11-7.08Z"/><path class="cls-2" d="M94.94,104.78,44.08,53.93,46,51.82A65.84,65.84,0,0,1,94.17,31h.19a66.34,66.34,0,0,1,49,21.8l1.91,2.1Zm-42.45-51L94.94,96.37,136.81,54.5A60.37,60.37,0,0,0,94.17,36.72H94A60.42,60.42,0,0,0,52.49,53.74Z"/></g></g></svg>