<?xml version="1.0" encoding="utf-8"?>
<svg id="master-artboard" viewBox="0 0 1400 980" version="1.1" xmlns="http://www.w3.org/2000/svg" x="0px" y="0px" style="enable-background:new 0 0 336 235.2;" width="1400px" height="980px"><g transform="matrix(15.3125, 0, 0, 15.3125, 210.00000868524785, -1.4210854715202004e-14)"><g id="Layer_1"><g><path d="M 64 32 A 32 32 0 0 1 32 64 A 32 32 0 0 1 0 32 A 32 32 0 0 1 32 0 A 32 32 0 0 1 64 32 Z" fill="#77B3D4"/></g><g opacity="0.2"><path d="M52,32c0-9.941-8.954-18-20-18s-20,8.059-20,18c0,9.569,8.303,17.372,18.775,17.944    C31.463,53.597,32,56,32,56s5.045-3.044,9.639-8.23C47.814,44.706,52,38.795,52,32z" fill="#231F20"/></g><g><path d="M49,28.8C49,43.763,32,54,32,54s-9.389-42,0-42S49,19.522,49,28.8z" fill="#FFFFFF"/></g><g><path d="M 52 30 A 20 18 0 0 1 32 48 A 20 18 0 0 1 12 30 A 20 18 0 0 1 32 12 A 20 18 0 0 1 52 30 Z" fill="#FFFFFF"/></g><g><path d="M 34 30 A 2 2 0 0 1 32 32 A 2 2 0 0 1 30 30 A 2 2 0 0 1 32 28 A 2 2 0 0 1 34 30 Z" fill="#4F5D73"/></g><g><path d="M 42 30 A 2 2 0 0 1 40 32 A 2 2 0 0 1 38 30 A 2 2 0 0 1 40 28 A 2 2 0 0 1 42 30 Z" fill="#4F5D73"/></g><g><path d="M 26 30 A 2 2 0 0 1 24 32 A 2 2 0 0 1 22 30 A 2 2 0 0 1 24 28 A 2 2 0 0 1 26 30 Z" fill="#4F5D73"/></g></g><g id="Layer_2"/></g></svg>