<?xml version="1.0" encoding="utf-8"?>
<svg id="master-artboard" viewBox="0 0 1400 980" version="1.1" xmlns="http://www.w3.org/2000/svg" x="0px" y="0px" style="enable-background:new 0 0 336 235.2;" width="1400px" height="980px"><g transform="matrix(16.333333333333332, 0, 0, 16.333333333333332, 210.0000086852479, 4.263256414560601e-14)"><title/><desc/><g fill="none" fill-rule="evenodd" id="Page-1" stroke="none" stroke-width="1"><g id="Social_icons" transform="translate(-622.000000, -1855.000000)"><g id="Intercom" transform="translate(622.000000, 1855.000000)"><path d="M0,30 C0,13.4314567 13.4314567,0 30,0 C46.5685433,0 60,13.4314567 60,30 C60,46.5685433 46.5685433,60 30,60 C13.4314567,60 0,46.5685433 0,30 Z" fill="#1F8DED" id="back"/><path d="M45.0000354,32.0454545 C45.0000354,32.7985227 44.3894672,33.4090909 43.6363991,33.4090909 C42.8833309,33.4090909 42.2727627,32.7985227 42.2727627,32.0454545 L42.2727627,19.7809091 C42.2727627,19.0278409 42.8833309,18.4172727 43.6363991,18.4172727 C44.3894672,18.4172727 45.0000354,19.0278409 45.0000354,19.7809091 L45.0000354,32.0454545 Z M44.5241263,40.5807955 C44.3134445,40.7611364 39.2618536,45 30.0000354,45 C20.7382172,45 15.6866263,40.7611364 15.4759445,40.5807955 C14.9045809,40.0905682 14.8381036,39.2297727 15.3283309,38.6577273 C15.8171945,38.0870455 16.6759445,38.0195455 17.24799,38.5073864 C17.3281036,38.5742045 21.8386718,42.2727273 30.0000354,42.2727273 C38.2636718,42.2727273 42.7050354,38.5476136 42.7486718,38.5101136 C43.3193536,38.0198864 44.1818536,38.0856818 44.67174,38.6577273 C45.1619672,39.2297727 45.0958309,40.0905682 44.5241263,40.5807955 Z M15.0000354,19.7809091 C15.0000354,19.0278409 15.6106036,18.4172727 16.3636718,18.4172727 C17.11674,18.4172727 17.7273081,19.0278409 17.7273081,19.7809091 L17.7273081,32.0454545 C17.7273081,32.7985227 17.11674,33.4090909 16.3636718,33.4090909 C15.6106036,33.4090909 15.0000354,32.7985227 15.0000354,32.0454545 L15.0000354,19.7809091 Z M21.8182172,17.0536364 C21.8182172,16.3005682 22.4287854,15.69 23.1818536,15.69 C23.9349218,15.69 24.54549,16.3005682 24.54549,17.0536364 L24.54549,35.2711364 C24.54549,36.0242045 23.9349218,36.6347727 23.1818536,36.6347727 C22.4287854,36.6347727 21.8182172,36.0242045 21.8182172,35.2711364 L21.8182172,17.0536364 Z M28.6363991,16.3636364 C28.6363991,15.6105682 29.2469672,15 30.0000354,15 C30.7531036,15 31.3636718,15.6105682 31.3636718,16.3636364 L31.3636718,36.1363636 C31.3636718,36.8894318 30.7531036,37.5 30.0000354,37.5 C29.2469672,37.5 28.6363991,36.8894318 28.6363991,36.1363636 L28.6363991,16.3636364 Z M35.4545809,17.0536364 C35.4545809,16.3005682 36.0651491,15.69 36.8182172,15.69 C37.5712854,15.69 38.1818536,16.3005682 38.1818536,17.0536364 L38.1818536,35.2711364 C38.1818536,36.0242045 37.5712854,36.6347727 36.8182172,36.6347727 C36.0651491,36.6347727 35.4545809,36.0242045 35.4545809,35.2711364 L35.4545809,17.0536364 Z" fill="#FFFFFF" id="Fill-1"/></g></g></g></g></svg>