<?xml version="1.0" encoding="UTF-8" standalone="no"?>
<!-- Generator: Adobe Illustrator 21.1.0, SVG Export Plug-In . SVG Version: 6.00 Build 0)  -->

<svg
   xmlns:dc="http://purl.org/dc/elements/1.1/"
   xmlns:cc="http://creativecommons.org/ns#"
   xmlns:rdf="http://www.w3.org/1999/02/22-rdf-syntax-ns#"
   xmlns:svg="http://www.w3.org/2000/svg"
   xmlns="http://www.w3.org/2000/svg"
   xmlns:sodipodi="http://sodipodi.sourceforge.net/DTD/sodipodi-0.dtd"
   xmlns:inkscape="http://www.inkscape.org/namespaces/inkscape"
   version="1.1"
   id="Ebene_4"
   x="0px"
   y="0px"
   viewBox="0 0 1077 881"
   style="enable-background:new 0 0 1077 881;"
   xml:space="preserve"
   sodipodi:docname="icon_metamask.svg"
   inkscape:version="0.92.2 (unknown)"><metadata
     id="metadata3794"><rdf:RDF><cc:Work
         rdf:about=""><dc:format>image/svg+xml</dc:format><dc:type
           rdf:resource="http://purl.org/dc/dcmitype/StillImage" /></cc:Work></rdf:RDF></metadata><defs
     id="defs3792" /><sodipodi:namedview
     pagecolor="#ffffff"
     bordercolor="#666666"
     borderopacity="1"
     objecttolerance="10"
     gridtolerance="10"
     guidetolerance="10"
     inkscape:pageopacity="0"
     inkscape:pageshadow="2"
     inkscape:window-width="2560"
     inkscape:window-height="1022"
     id="namedview3790"
     showgrid="false"
     inkscape:zoom="0.94324631"
     inkscape:cx="538.5"
     inkscape:cy="532.60369"
     inkscape:window-x="0"
     inkscape:window-y="30"
     inkscape:window-maximized="1"
     inkscape:current-layer="Ebene_4" /><style
     type="text/css"
     id="style3772">
	.st0{fill:none;stroke:#000000;stroke-width:8;stroke-miterlimit:10;}
	.st1{stroke:#000000;stroke-width:2;stroke-miterlimit:10;}
	.st2{fill:none;stroke:#000000;stroke-width:5;stroke-miterlimit:10;}
</style><polygon
     id="outline"
     class="st0"
     points="329,421 341,432 333,438 350,457 321,543 344,627 432,598 484,624 543,625 590,597 675,625 698,541 671,457 687,438 677,432 689,422 681,415 693,406 685,401 696,339 678,286 561,332 460,332 343,282 323,340 333,400 326,405 339,415 "
     transform="matrix(2.7550173,0,0,2.4528167,-865.01944,-671.78502)"
     style="fill:none;stroke:#000000;stroke-width:8;stroke-miterlimit:10" /><polygon
     class="st1"
     points="329,421 339,415 326,405 333,400 323,340 343,282 483,389 427,437 350,457 333,438 341,432 "
     id="polygon3775"
     transform="matrix(2.7550173,0,0,2.4528167,-865.01944,-671.78502)"
     style="stroke:#000000;stroke-width:2;stroke-miterlimit:10" /><polygon
     class="st1"
     points="681,415 689,422 677,432 687,438 671,457 593,436 539,389 678,286 696,337 685,401 693,406 "
     id="polygon3777"
     transform="matrix(2.7550173,0,0,2.4528167,-865.01944,-671.78502)"
     style="stroke:#000000;stroke-width:2;stroke-miterlimit:10" /><polygon
     class="st1"
     points="468,487 483,512 439,501 "
     id="polygon3779"
     transform="matrix(2.7550173,0,0,2.4528167,-865.01944,-671.78502)"
     style="stroke:#000000;stroke-width:2;stroke-miterlimit:10" /><polygon
     class="st1"
     points="555,487 544,512 583,501 "
     id="polygon3781"
     transform="matrix(2.7550173,0,0,2.4528167,-865.01944,-671.78502)"
     style="stroke:#000000;stroke-width:2;stroke-miterlimit:10" /><polygon
     class="st1"
     points="487,591 483,595 486,561 494,556 535,556 543,561 547,594 544,591 "
     id="polygon3783"
     transform="matrix(2.7550173,0,0,2.4528167,-865.01944,-671.78502)"
     style="stroke:#000000;stroke-width:2;stroke-miterlimit:10" /><path
     class="st2"
     d="M 1053.85,656.41524 748.04312,644.15115 643.35247,700.56593 c -13.77509,7.35845 -27.55018,14.71691 -27.55018,14.71691"
     id="path3785"
     inkscape:connector-curvature="0"
     style="fill:none;stroke:#000000;stroke-width:12.99764538;stroke-miterlimit:10" /><path
     class="st2"
     d="m 480.80646,715.28284 c 0,0 -13.77509,-7.35846 -27.55017,-14.71691 L 348.56564,644.15115 42.758734,656.41524 17.96357,658.86805"
     id="path3787"
     inkscape:connector-curvature="0"
     style="fill:none;stroke:#000000;stroke-width:12.99764538;stroke-miterlimit:10" /></svg>