<svg xmlns="http://www.w3.org/2000/svg" xmlns:xlink="http://www.w3.org/1999/xlink" version="1.1" id="Ebene_2" x="0px" y="0px" viewBox="0 0 50 50" style="enable-background:new 0 0 50 50;" xml:space="preserve">
    <g transform="translate(-5,10)"><path fill="#000" fill-rule="nonzero" d="M56.392 2.776l-7.128 7.128a5.02 5.02 0 0 0-6.272.717l-5.72-3.555a5.037 5.037 0 0 0 .281-1.645A5.05 5.05 0 0 0 32.508.375a5.05 5.05 0 0 0-5.045 5.046c0 1.655.808 3.126 2.045 4.046l-4.805 10.908a5.052 5.052 0 0 0-.96-.095c-1.115 0-2.14.366-2.976.978l-5.414-4.706c.384-.71.6-1.523.6-2.383a5.05 5.05 0 0 0-5.046-5.046 5.05 5.05 0 0 0-5.045 5.046c0 .988.289 1.906.783 2.687L.82 22.68a1.114 1.114 0 1 0 1.575 1.578l5.826-5.825a5.009 5.009 0 0 0 5.665-.198l5.413 4.706a5.005 5.005 0 0 0-.602 2.388 5.05 5.05 0 0 0 5.045 5.045 5.05 5.05 0 0 0 5.046-5.045 5.038 5.038 0 0 0-2.045-4.046l4.802-10.906a5.026 5.026 0 0 0 4.55-1.41l5.718 3.555a4.988 4.988 0 0 0-.283 1.648 5.05 5.05 0 0 0 5.045 5.046 5.05 5.05 0 0 0 5.045-5.046c0-.988-.288-1.906-.783-2.686l7.128-7.128a1.114 1.114 0 1 0-1.573-1.58z"/>
    </g>
</svg>
