<svg xmlns="http://www.w3.org/2000/svg" width="10" height="10" viewBox="0 0 10 10">
    <path fill="#00A5C5" fill-rule="nonzero" d="M7.012 1.384a.913.913 0 0 0-.035.034L4.129 4.307a.834.834 0 0 0 0 1.171l.384.39a.807.807 0 0 0 1.155 0l2.848-2.89.032-.035.874.886c.319.324.578.215.578-.244V.276A.273.273 0 0 0 9.728 0H6.467c-.456 0-.56.263-.241.587l.786.797zM1.668 0C.743 0 0 .747 0 1.67v6.663C0 9.257.746 10 1.668 10h6.664C9.257 10 10 9.254 10 8.332V4.028v2.36L8.333 5.008v2.495a.832.832 0 0 1-.831.832H2.498a.832.832 0 0 1-.832-.832V2.498c0-.459.373-.83.832-.83H5L3.61 0h2.361-4.303z"/>
</svg>
