<svg width="147" height="56" viewBox="0 0 147 56" fill="none" xmlns="http://www.w3.org/2000/svg">
<path fill-rule="evenodd" clip-rule="evenodd" d="M28 0C12.536 0 0 12.5362 0 28C0 43.464 12.536 56 28 56C43.464 56 56 43.464 56 28C56 12.5362 43.464 0 28 0Z" fill="#4360DF"/>
<path fill-rule="evenodd" clip-rule="evenodd" d="M28.9403 26.7727C30.3463 26.9191 31.7523 27.0654 33.4809 26.9691C38.1643 26.708 41.0013 24.3042 40.8 20.7111C40.5948 17.0553 36.8205 14.803 33.0441 15.0136C26.8898 15.3565 22.3642 20.7597 21.8545 26.9353C22.6903 26.7395 23.57 26.6226 24.3996 26.5764C26.1283 26.4801 27.5343 26.6264 28.9403 26.7727ZM16.8758 34.7648C17.07 38.116 20.6457 40.1806 24.2235 39.9875C30.0538 39.6731 34.3414 34.7202 34.8241 29.0592C34.0323 29.2387 33.199 29.346 32.413 29.3883C30.7753 29.4766 29.4432 29.3425 28.1111 29.2083C26.7791 29.0742 25.447 28.9401 23.8094 29.0284C19.3727 29.2677 16.6848 31.4711 16.8758 34.7648Z" fill="white"/>
<path d="M66.8965 32.6494H70.9438C70.9438 33.335 71.1372 33.8271 71.5239 34.126C71.9106 34.4248 72.4072 34.5742 73.0137 34.5742C73.5146 34.5742 73.9233 34.4819 74.2397 34.2974C74.5649 34.104 74.7275 33.792 74.7275 33.3613C74.7275 33.1064 74.6572 32.8999 74.5166 32.7417C74.3848 32.5747 74.1782 32.4297 73.897 32.3066C73.6157 32.1748 73.2554 32.043 72.8159 31.9111C72.3765 31.7793 71.8491 31.6123 71.2339 31.4102C70.6802 31.2344 70.1572 31.0542 69.665 30.8696C69.1816 30.6763 68.7554 30.439 68.3862 30.1577C68.0171 29.8765 67.7271 29.5337 67.5161 29.1294C67.314 28.7251 67.2129 28.2241 67.2129 27.6265C67.2129 26.9409 67.3491 26.3477 67.6216 25.8467C67.894 25.3457 68.2764 24.9326 68.7686 24.6074C69.2607 24.2822 69.8496 24.0405 70.5352 23.8823C71.2207 23.7153 71.9766 23.6318 72.8027 23.6318C73.8135 23.6318 74.6836 23.7461 75.4131 23.9746C76.1426 24.2031 76.7402 24.5151 77.2061 24.9106C77.6719 25.3062 78.0146 25.772 78.2344 26.3081C78.4629 26.8442 78.5771 27.4199 78.5771 28.0352H74.5034C74.5034 27.499 74.3628 27.0815 74.0815 26.7827C73.8091 26.4839 73.3916 26.3345 72.8291 26.3345C72.3984 26.3345 72.0293 26.4312 71.7217 26.6245C71.4141 26.8091 71.2603 27.0903 71.2603 27.4683C71.2603 27.7231 71.3306 27.9297 71.4712 28.0879C71.6206 28.2373 71.8359 28.3735 72.1172 28.4966C72.3984 28.6196 72.7456 28.7471 73.1587 28.8789C73.5718 29.002 74.0464 29.1514 74.5825 29.3271C75.1626 29.4854 75.7031 29.6611 76.2041 29.8545C76.7051 30.0479 77.1445 30.2852 77.5225 30.5664C77.9092 30.8389 78.2124 31.186 78.4321 31.6079C78.6606 32.021 78.7749 32.5483 78.7749 33.1899C78.7749 33.9458 78.6167 34.5918 78.3003 35.1279C77.9839 35.6553 77.5576 36.0859 77.0215 36.4199C76.4941 36.7539 75.8789 36.9912 75.1758 37.1318C74.4727 37.2812 73.7344 37.356 72.9609 37.356C71.0361 37.356 69.542 36.9561 68.4785 36.1562C67.4238 35.3477 66.8965 34.1787 66.8965 32.6494Z" fill="black"/>
<path d="M79.8032 27.0596V23.9878H81.8467V20.125H85.96V23.9878H88.9263V27.0596H85.96V31.7134C85.96 32.1968 86.0039 32.5835 86.0918 32.8735C86.1797 33.1548 86.3027 33.3789 86.4609 33.5459C86.6279 33.7041 86.8257 33.8096 87.0542 33.8623C87.2915 33.9062 87.5552 33.9282 87.8452 33.9282C88.021 33.9282 88.2451 33.9238 88.5176 33.915C88.79 33.8975 89.0273 33.8711 89.2295 33.8359V37C88.9219 37.0527 88.5352 37.1011 88.0693 37.145C87.6123 37.189 87.0718 37.2109 86.4478 37.2109C85.9644 37.2109 85.4546 37.1758 84.9185 37.1055C84.3823 37.0352 83.8857 36.8506 83.4287 36.5518C82.9717 36.2529 82.5938 35.7959 82.2949 35.1807C81.9961 34.5566 81.8467 33.7041 81.8467 32.623V27.0596H79.8032Z" fill="black"/>
<path d="M90.416 30.4873C90.416 29.5117 90.5698 28.6064 90.8774 27.7715C91.1938 26.9365 91.6289 26.2202 92.1826 25.6226C92.7451 25.0161 93.3999 24.5371 94.147 24.1855C94.894 23.834 95.7026 23.6582 96.5728 23.6582C97.5483 23.6582 98.3921 23.8647 99.104 24.2778C99.8247 24.6909 100.365 25.2139 100.726 25.8467V23.9878H104.852V37H100.726V35.1675C100.4 35.7651 99.8774 36.2749 99.1567 36.6968C98.436 37.1187 97.5747 37.3296 96.5728 37.3296C95.7114 37.3296 94.9028 37.1538 94.147 36.8022C93.3999 36.4507 92.7451 35.9717 92.1826 35.3652C91.6289 34.7588 91.1938 34.0381 90.8774 33.2031C90.5698 32.3682 90.416 31.4629 90.416 30.4873ZM94.5161 30.4873C94.5161 30.9355 94.5908 31.3662 94.7402 31.7793C94.8984 32.1836 95.1094 32.5352 95.373 32.834C95.6455 33.124 95.9707 33.3613 96.3486 33.5459C96.7266 33.7217 97.1484 33.8096 97.6143 33.8096C98.0801 33.8096 98.502 33.7217 98.8799 33.5459C99.2666 33.3613 99.5918 33.124 99.8555 32.834C100.128 32.5352 100.339 32.1836 100.488 31.7793C100.646 31.375 100.726 30.9443 100.726 30.4873C100.726 30.0391 100.646 29.6172 100.488 29.2217C100.339 28.8262 100.128 28.4746 99.8555 28.167C99.5918 27.8594 99.271 27.6177 98.8931 27.4419C98.5151 27.2661 98.0889 27.1782 97.6143 27.1782C97.1484 27.1782 96.7266 27.2661 96.3486 27.4419C95.9707 27.6177 95.6455 27.8594 95.373 28.167C95.1094 28.4746 94.8984 28.8262 94.7402 29.2217C94.5908 29.6172 94.5161 30.0391 94.5161 30.4873Z" fill="black"/>
<path d="M107.067 27.0596V23.9878H109.11V20.125H113.224V23.9878H116.19V27.0596H113.224V31.7134C113.224 32.1968 113.268 32.5835 113.355 32.8735C113.443 33.1548 113.566 33.3789 113.725 33.5459C113.892 33.7041 114.089 33.8096 114.318 33.8623C114.555 33.9062 114.819 33.9282 115.109 33.9282C115.285 33.9282 115.509 33.9238 115.781 33.915C116.054 33.8975 116.291 33.8711 116.493 33.8359V37C116.186 37.0527 115.799 37.1011 115.333 37.145C114.876 37.189 114.335 37.2109 113.711 37.2109C113.228 37.2109 112.718 37.1758 112.182 37.1055C111.646 37.0352 111.149 36.8506 110.692 36.5518C110.235 36.2529 109.857 35.7959 109.559 35.1807C109.26 34.5566 109.11 33.7041 109.11 32.623V27.0596H107.067Z" fill="black"/>
<path d="M118.537 31.7134V23.9878H122.637V30.6587C122.637 31.5903 122.804 32.3506 123.138 32.9395C123.472 33.5195 124.069 33.8096 124.931 33.8096C125.792 33.8096 126.425 33.5151 126.829 32.9263C127.242 32.3286 127.449 31.5244 127.449 30.5137V23.9878H131.575V37H127.449V35.1411C127.088 35.8267 126.539 36.3628 125.801 36.7495C125.062 37.1362 124.179 37.3296 123.151 37.3296C122.254 37.3296 121.516 37.189 120.936 36.9077C120.365 36.6265 119.899 36.2705 119.539 35.8398C119.125 35.3389 118.853 34.7588 118.721 34.0996C118.598 33.4404 118.537 32.645 118.537 31.7134Z" fill="black"/>
<path d="M134.238 32.6494H138.286C138.286 33.335 138.479 33.8271 138.866 34.126C139.252 34.4248 139.749 34.5742 140.355 34.5742C140.856 34.5742 141.265 34.4819 141.582 34.2974C141.907 34.104 142.069 33.792 142.069 33.3613C142.069 33.1064 141.999 32.8999 141.858 32.7417C141.727 32.5747 141.52 32.4297 141.239 32.3066C140.958 32.1748 140.597 32.043 140.158 31.9111C139.718 31.7793 139.191 31.6123 138.576 31.4102C138.022 31.2344 137.499 31.0542 137.007 30.8696C136.523 30.6763 136.097 30.439 135.728 30.1577C135.359 29.8765 135.069 29.5337 134.858 29.1294C134.656 28.7251 134.555 28.2241 134.555 27.6265C134.555 26.9409 134.691 26.3477 134.963 25.8467C135.236 25.3457 135.618 24.9326 136.11 24.6074C136.603 24.2822 137.191 24.0405 137.877 23.8823C138.562 23.7153 139.318 23.6318 140.145 23.6318C141.155 23.6318 142.025 23.7461 142.755 23.9746C143.484 24.2031 144.082 24.5151 144.548 24.9106C145.014 25.3062 145.356 25.772 145.576 26.3081C145.805 26.8442 145.919 27.4199 145.919 28.0352H141.845C141.845 27.499 141.705 27.0815 141.423 26.7827C141.151 26.4839 140.733 26.3345 140.171 26.3345C139.74 26.3345 139.371 26.4312 139.063 26.6245C138.756 26.8091 138.602 27.0903 138.602 27.4683C138.602 27.7231 138.672 27.9297 138.813 28.0879C138.962 28.2373 139.178 28.3735 139.459 28.4966C139.74 28.6196 140.087 28.7471 140.5 28.8789C140.914 29.002 141.388 29.1514 141.924 29.3271C142.504 29.4854 143.045 29.6611 143.546 29.8545C144.047 30.0479 144.486 30.2852 144.864 30.5664C145.251 30.8389 145.554 31.186 145.774 31.6079C146.002 32.021 146.117 32.5483 146.117 33.1899C146.117 33.9458 145.958 34.5918 145.642 35.1279C145.326 35.6553 144.899 36.0859 144.363 36.4199C143.836 36.7539 143.221 36.9912 142.518 37.1318C141.814 37.2812 141.076 37.356 140.303 37.356C138.378 37.356 136.884 36.9561 135.82 36.1562C134.766 35.3477 134.238 34.1787 134.238 32.6494Z" fill="black"/>
</svg>
