<svg xmlns="http://www.w3.org/2000/svg" width="31" height="38" viewBox="0 0 31 38">
    <g fill="#172A37" fill-rule="nonzero">
        <path d="M27.029 29.437c.026-.14.048-.284.048-.43 0-.536-.212-1.046-.565-1.529-2.847 2.493-6.564 4.018-10.639 4.018-4.074 0-7.79-1.525-10.638-4.02-.353.485-.565.995-.565 1.53 0 .147.022.29.048.431-2.345.88-3.782 2.034-3.782 3.304 0 2.75 6.687 4.98 14.938 4.98 8.25 0 14.937-2.23 14.937-4.98 0-1.27-1.436-2.424-3.782-3.304z"/>
        <path d="M15.873.375C7.623.375.935 7.064.935 15.313c0 8.25 6.689 14.938 14.938 14.938 8.25 0 14.938-6.688 14.938-14.938S24.123.375 15.873.375zm8.712 25.504a13.71 13.71 0 0 1-3.715 2.174c-1.55.608-3.231.954-4.997.954a13.59 13.59 0 0 1-4.995-.954 13.687 13.687 0 0 1-3.715-2.174 13.663 13.663 0 0 1-4.982-10.566c0-7.56 6.131-13.693 13.694-13.693 7.562 0 13.693 6.133 13.693 13.693a13.671 13.671 0 0 1-4.983 10.566z"/>
        <path d="M3.426 15.313H4.67C4.67 9.125 9.685 4.11 15.873 4.11V2.866c-6.875 0-12.447 5.572-12.447 12.447z"/>
    </g>
</svg>
