<svg width="159" height="252" viewBox="0 0 159 252" version="1.1" xmlns="http://www.w3.org/2000/svg" xmlns:xlink="http://www.w3.org/1999/xlink">
<title>logo_solid_square_transparent</title>
<desc>Created using Figma</desc>
<g id="Canvas" transform="translate(-83 -778)">
<g id="logo_solid_square_transparent">
<g id="TRUST">
<use xlink:href="#path0_fill" transform="translate(20 983)" fill="#3375BB"/>
</g>
<g id="logo_solid_white">
<use xlink:href="#path1_fill" transform="translate(90 785)" fill="#FFFFFF"/>
<use xlink:href="#path2_stroke" transform="translate(90 785)" fill="#3375BB"/>
</g>
</g>
</g>
<defs>
<path id="path0_fill" d="M 93.1719 16.3857L 82.2832 16.3857L 82.2832 46L 74.959 46L 74.959 16.3857L 64.2168 16.3857L 64.2168 10.4531L 93.1719 10.4531L 93.1719 16.3857ZM 110.53 32.9873L 104.695 32.9873L 104.695 46L 97.3711 46L 97.3711 10.4531L 110.579 10.4531C 114.778 10.4531 118.017 11.389 120.296 13.2607C 122.575 15.1325 123.714 17.7773 123.714 21.1953C 123.714 23.6204 123.185 25.6468 122.127 27.2744C 121.085 28.8857 119.498 30.1715 117.366 31.1318L 125.057 45.6582L 125.057 46L 117.195 46L 110.53 32.9873ZM 104.695 27.0547L 110.604 27.0547C 112.443 27.0547 113.867 26.5908 114.876 25.6631C 115.885 24.7191 116.39 23.4251 116.39 21.7812C 116.39 20.1048 115.91 18.7865 114.949 17.8262C 114.005 16.8659 112.549 16.3857 110.579 16.3857L 104.695 16.3857L 104.695 27.0547ZM 156.209 10.4531L 156.209 33.8662C 156.209 37.7562 154.988 40.8324 152.547 43.0947C 150.122 45.3571 146.801 46.4883 142.586 46.4883C 138.436 46.4883 135.14 45.3896 132.698 43.1924C 130.257 40.9951 129.012 37.9759 128.963 34.1348L 128.963 10.4531L 136.287 10.4531L 136.287 33.915C 136.287 36.2425 136.84 37.9434 137.947 39.0176C 139.07 40.0755 140.617 40.6045 142.586 40.6045C 146.704 40.6045 148.795 38.4398 148.86 34.1104L 148.86 10.4531L 156.209 10.4531ZM 180.647 36.6738C 180.647 35.2904 180.159 34.2324 179.183 33.5C 178.206 32.7513 176.448 31.9701 173.909 31.1562C 171.37 30.3262 169.36 29.5124 167.879 28.7148C 163.842 26.5339 161.824 23.596 161.824 19.9014C 161.824 17.9808 162.361 16.2718 163.436 14.7744C 164.526 13.2607 166.08 12.0807 168.099 11.2344C 170.133 10.388 172.412 9.96484 174.935 9.96484C 177.474 9.96484 179.736 10.4287 181.722 11.3564C 183.707 12.2679 185.245 13.5618 186.336 15.2383C 187.443 16.9147 187.996 18.819 187.996 20.9512L 180.672 20.9512C 180.672 19.3236 180.159 18.0622 179.134 17.167C 178.108 16.2555 176.668 15.7998 174.812 15.7998C 173.022 15.7998 171.631 16.1823 170.638 16.9473C 169.645 17.696 169.148 18.6888 169.148 19.9258C 169.148 21.0814 169.726 22.0498 170.882 22.8311C 172.054 23.6123 173.771 24.3447 176.033 25.0283C 180.2 26.2816 183.235 27.8359 185.14 29.6914C 187.044 31.5469 187.996 33.8581 187.996 36.625C 187.996 39.7012 186.832 42.1182 184.505 43.876C 182.177 45.6175 179.044 46.4883 175.105 46.4883C 172.371 46.4883 169.881 45.9919 167.635 44.999C 165.389 43.9899 163.672 42.6146 162.483 40.873C 161.312 39.1315 160.726 37.1133 160.726 34.8184L 168.074 34.8184C 168.074 38.7409 170.418 40.7021 175.105 40.7021C 176.847 40.7021 178.206 40.3522 179.183 39.6523C 180.159 38.9362 180.647 37.9434 180.647 36.6738ZM 219.734 16.3857L 208.846 16.3857L 208.846 46L 201.521 46L 201.521 16.3857L 190.779 16.3857L 190.779 10.4531L 219.734 10.4531L 219.734 16.3857Z"/>
<path id="path1_fill" d="M 72.4 -7.62939e-07C 101.7 22.7 135.3 21.3 144.9 21.3C 142.8 150.4 126.8 133.2 72.4 169.4C 18 133.2 2.10002 150.4 2.44141e-05 21.3C 9.50002 21.3 43.1 22.7 72.4 -7.62939e-07Z"/>
<path id="path2_stroke" d="M 72.4 -7.62939e-07L 76.6355 -5.46695C 74.1422 -7.39862 70.6578 -7.39862 68.1645 -5.46695L 72.4 -7.62939e-07ZM 144.9 21.3L 151.815 21.4125C 151.845 19.5591 151.13 17.7711 149.83 16.4498C 148.53 15.1284 146.754 14.3843 144.9 14.3843L 144.9 21.3ZM 72.4 169.4L 68.5687 175.157C 70.8895 176.702 73.9105 176.702 76.2312 175.157L 72.4 169.4ZM 2.44141e-05 21.3L 2.44141e-05 14.3843C -1.85363 14.3843 -3.62969 15.1284 -4.92972 16.4498C -6.22975 17.7711 -6.94491 19.5591 -6.91476 21.4125L 2.44141e-05 21.3ZM 68.1645 5.46695C 99.5498 29.7826 135.462 28.2157 144.9 28.2157L 144.9 14.3843C 135.138 14.3843 103.85 15.6174 76.6355 -5.46695L 68.1645 5.46695ZM 137.985 21.1875C 137.464 53.3107 136.105 75.9691 133.502 92.7573C 130.933 109.367 127.26 119.322 122.533 126.314C 117.743 133.578 111.735 137.889 102.832 143.208C 93.8513 148.587 82.5074 154.381 68.5687 163.643L 76.2312 175.157C 89.4925 166.319 100.549 160.688 109.934 155.076C 119.396 149.405 127.719 143.159 133.992 134.061C 140.327 124.69 144.448 112.476 147.17 94.8709C 149.858 77.4434 151.286 53.8393 151.815 21.4125L 137.985 21.1875ZM 76.2312 163.643C 62.2932 154.381 50.9569 148.588 41.9867 143.21C 33.0938 137.892 27.0986 133.583 22.3207 126.32C 17.6046 119.329 13.9431 109.373 11.3835 92.7609C 8.78912 75.9718 7.43571 53.3117 6.91481 21.1875L -6.91476 21.4125C -6.38566 53.8383 -4.96407 77.4407 -2.28659 94.8672C 0.425674 112.47 4.53296 124.684 10.8543 134.055C 17.1139 143.154 25.4249 149.402 34.8789 155.075C 44.2555 160.687 55.3068 166.319 68.5687 175.157L 76.2312 163.643ZM 2.44141e-05 28.2157C 9.34005 28.2157 45.2509 29.782 76.6355 5.46695L 68.1645 -5.46695C 40.9491 15.618 9.66 14.3843 2.44141e-05 14.3843L 2.44141e-05 28.2157Z"/>
</defs>
</svg>