<svg width="82" height="52" viewBox="0 0 82 52" xmlns="http://www.w3.org/2000/svg">
    <title>drivers-licence-hover</title>
    <g fill="none">
        <path d="M4 0h73.2c2.21 0 4 1.79 4 4v43.5c0 2.21-1.79 4-4 4H4c-2.21 0-4-1.79-4-4V4c0-2.21 1.79-4 4-4z" fill="#00a6c4" />
        <g fill="#F3F3F4">
            <path d="M37.17 26.23a.37.37 0 0 0-.1-.3l-5-4.1H22a.762.762 0 0 0-.5.2l-3.3 3.5-7.4 1.3a.68.68 0 0 0-.3.4v2.6c.2.4.3.4.4.4h1.4a2.55 2.55 0 0 1 5.1 0h13.1a2.55 2.55 0 0 1 5.1 0h1.2c.2 0 .3-.2.4-.4l-.03-3.6zM26.37 26h-7c-.3-.1-.3-.3-.2-.5l2.5-2.6c.1 0 .1-.1.2-.1h4.5V26zm7.2 0h-6.4v-3.2H31c.1 0 .1.1.2.1l2.2 2.3c.1.3.5.7.2.8h-.03z" />
            <path d="M14.87 28.13a2.2 2.2 0 1 0 2.1 2.3v-.1a2.201 2.201 0 0 0-2.1-2.2zm0 3.1a.9.9 0 1 1 0-1.8.9.9 0 0 1 0 1.8zm18.2-3.1a2.2 2.2 0 1 0 2.1 2.3v-.1a2.137 2.137 0 0 0-.584-1.53 2.136 2.136 0 0 0-1.496-.67h-.02zm0 3.1a.9.9 0 1 1 0-1.8.9.9 0 0 1 0 1.8zM42 20.5h32v1H42zm0 8h16v1H42zm0-4h24v1H42z" />
        </g>
    </g>
</svg>