<svg width="82" height="51" viewBox="0 0 82 51" xmlns="http://www.w3.org/2000/svg">
    <title>national-id-card-hover</title>
    <path fill="#00a6c4" d="M4 0C1.79 0 0 1.79 0 4v42.9c0 2.21 1.79 4 4 4h73.3c2.21 0 4-1.79 4-4V4c0-2.21-1.79-4-4-4H4zm17.1 37.3H9.7l.2-1.2c.5-1.3.5-2.2 1.9-2.8 1.8-.8 4.7-1.6 5.7-2.5.43-.417.65-1.004.6-1.6.016-.205-.02-.41-.1-.6-.8-.3-1.3-1.9-1.5-2.4a.917.917 0 0 1-.6-.4c-.9-1.5-1.3-2.6-.4-2.7a7.9 7.9 0 0 1-.1-1.4l-.5-1.5c.06-.517.195-1.022.4-1.5.4-1.2-.1-2.1 1.6-1.9 0 0-.2-1.7 4.4-2.8 4.6-1.1 3.3 1.5 5.7 2.7.22.677.026 1.42-.5 1.9a9.528 9.528 0 0 1 .3 4.6c.8.1.5 1.2-.4 2.7-.1.2-.4.3-.6.4-.2.5-.7 2.1-1.5 2.4-.08.19-.116.395-.1.6-.05.596.17 1.183.6 1.6 1 1 3.9 1.8 5.7 2.5 1.4.6 1.4 1.5 1.9 2.8l.2 1.2c-.1-.1-11.6-.1-11.5-.1zm17-18.5a.47.47 0 0 1 .44-.5h30a.468.468 0 0 1 .5.5.47.47 0 0 1-.44.5h-30a.468.468 0 0 1-.5-.5zm0 6.7a.47.47 0 0 1 .44-.5h30a.468.468 0 0 1 .5.5.47.47 0 0 1-.44.5h-30a.541.541 0 0 1-.5-.5zm0 6.6a.47.47 0 0 1 .44-.5H54a.468.468 0 0 1 .5.5.47.47 0 0 1-.44.5H38.6a.468.468 0 0 1-.5-.5z" />
</svg>